<svg width="50" height="50" viewBox="0 0 50 50" fill="none" xmlns="http://www.w3.org/2000/svg">
<g clip-path="url(#clip0_6_43)">
<path d="M50 25C50 11.25 38.75 0 25 0C19.375 0 14.1667 1.875 10 5C9.79167 5.20833 9.58334 5.20833 9.375 5.20833C8.75 5.20833 8.33334 4.79167 8.33334 4.16667V2.08333C8.33334 0.833333 7.5 0 6.25 0L2.08334 0C0.833336 0 0 0.833333 0 2.08333V18.75C0 20 0.833336 20.8333 2.08334 20.8333H18.75C20 20.8333 20.8333 20 20.8333 18.75V14.5833C20.8333 13.3333 20 12.5 18.75 12.5H17.2917C16.875 12.5 16.6667 12.2917 16.4583 12.0833C16.25 11.6667 16.25 11.0417 16.875 10.625C19.375 9.16667 22.2917 8.33333 25.2083 8.33333C34.375 8.33333 41.875 15.8333 41.875 25C41.875 34.1667 34.375 41.6667 25.2083 41.6667C17.9167 41.6667 11.6667 37.0833 9.58334 30.4167C9.375 29.5833 8.54167 29.1667 7.70834 29.1667H3.33334C1.875 29.1667 0.833336 30.4167 1.25 31.875C4.16667 42.2917 13.9583 50 25.2083 50C38.75 50 50 38.75 50 25V25Z" fill="black"/>
</g>
<defs>
<clipPath id="clip0_6_43">
<rect width="50" height="50" fill="white" transform="translate(50) rotate(90)"/>
</clipPath>
</defs>
</svg>
